<?xml version="1.0" standalone="no"?>
<!DOCTYPE svg PUBLIC "-//W3C//DTD SVG 20010904//EN"
 "http://www.w3.org/TR/2001/REC-SVG-20010904/DTD/svg10.dtd">
<svg version="1.0" xmlns="http://www.w3.org/2000/svg"
 width="1080.000000pt" height="1080.000000pt" viewBox="0 0 1080.000000 1080.000000"
 preserveAspectRatio="xMidYMid meet">
<metadata>
Created by potrace 1.11, written by Peter Selinger 2001-2013
</metadata>
<g transform="translate(0.000000,1080.000000) scale(0.100000,-0.100000)"
fill="#000000" stroke="none">
<path d="M3855 9358 c-3 -7 -4 -794 -3 -1748 l3 -1735 1740 0 1740 0 5 157 5
156 115 -84 c63 -47 147 -109 185 -138 39 -29 81 -59 95 -66 14 -7 30 -19 35
-25 17 -20 92 -75 103 -75 5 0 12 -7 16 -15 3 -8 12 -15 20 -15 8 0 16 -3 18
-7 3 -8 142 -114 213 -163 20 -14 42 -29 48 -35 12 -10 84 -63 169 -126 26
-19 48 -37 48 -41 0 -4 -10 -13 -22 -19 -13 -7 -75 -51 -138 -98 -63 -47 -134
-99 -157 -114 -24 -16 -43 -33 -43 -38 0 -5 -6 -9 -12 -9 -12 0 -46 -25 -90
-64 -10 -9 -21 -16 -24 -16 -5 0 -28 -16 -214 -153 -47 -34 -113 -82 -147
-106 -35 -24 -63 -48 -63 -52 0 -5 -5 -9 -11 -9 -9 0 -73 -43 -89 -60 -3 -3
-17 -13 -32 -23 l-27 -17 -3 152 -3 153 -1740 0 -1740 0 0 -1745 0 -1745 970
0 c874 0 984 2 1110 18 430 55 812 149 1155 285 132 52 419 183 459 208 14 10
53 32 86 50 93 49 125 68 125 77 0 4 4 7 10 7 13 0 144 80 148 91 2 5 9 9 15
9 7 0 35 17 62 38 28 21 71 52 98 70 26 18 58 43 72 55 14 12 37 31 51 42 196
151 487 436 634 623 14 18 35 43 46 56 45 51 175 236 250 356 306 489 488
1021 550 1603 22 213 15 683 -15 879 -43 292 -118 583 -213 827 -71 186 -297
629 -337 661 -3 3 -15 22 -26 43 -11 21 -28 47 -38 57 -9 11 -17 22 -17 25 0
8 -109 158 -125 170 -6 6 -14 15 -16 22 -4 13 -67 89 -111 136 -16 16 -28 32
-28 36 0 4 -64 72 -143 151 -132 135 -184 184 -298 283 -24 21 -51 45 -60 53
-9 8 -21 14 -27 14 -7 0 -12 4 -12 9 0 5 -20 24 -45 42 -25 19 -58 44 -73 56
-15 13 -30 23 -34 23 -4 0 -21 13 -38 29 -18 16 -44 35 -58 42 -15 8 -29 17
-32 20 -12 13 -99 69 -108 69 -6 0 -12 3 -14 8 -3 7 -91 61 -178 109 -19 11
-64 36 -100 56 -88 49 -331 159 -465 212 -354 137 -771 239 -1145 279 -80 9
-170 19 -200 22 -30 3 -466 8 -968 10 -732 4 -913 2 -917 -8z"/>
</g>
</svg>
